%TF.GenerationSoftware,KiCad,Pcbnew,(6.0.8-1)-1*%
%TF.CreationDate,2022-12-20T12:21:06-06:00*%
%TF.ProjectId,HallEffectSensor,48616c6c-4566-4666-9563-7453656e736f,rev?*%
%TF.SameCoordinates,Original*%
%TF.FileFunction,Legend,Top*%
%TF.FilePolarity,Positive*%
%FSLAX46Y46*%
G04 Gerber Fmt 4.6, Leading zero omitted, Abs format (unit mm)*
G04 Created by KiCad (PCBNEW (6.0.8-1)-1) date 2022-12-20 12:21:06*
%MOMM*%
%LPD*%
G01*
G04 APERTURE LIST*
%ADD10C,0.150000*%
%ADD11C,0.120000*%
G04 APERTURE END LIST*
D10*
X153838095Y-92028571D02*
X153504761Y-92028571D01*
X153504761Y-92552380D02*
X153504761Y-91552380D01*
X153980952Y-91552380D01*
X154933333Y-92552380D02*
X154600000Y-92076190D01*
X154361904Y-92552380D02*
X154361904Y-91552380D01*
X154742857Y-91552380D01*
X154838095Y-91600000D01*
X154885714Y-91647619D01*
X154933333Y-91742857D01*
X154933333Y-91885714D01*
X154885714Y-91980952D01*
X154838095Y-92028571D01*
X154742857Y-92076190D01*
X154361904Y-92076190D01*
X155933333Y-92457142D02*
X155885714Y-92504761D01*
X155742857Y-92552380D01*
X155647619Y-92552380D01*
X155504761Y-92504761D01*
X155409523Y-92409523D01*
X155361904Y-92314285D01*
X155314285Y-92123809D01*
X155314285Y-91980952D01*
X155361904Y-91790476D01*
X155409523Y-91695238D01*
X155504761Y-91600000D01*
X155647619Y-91552380D01*
X155742857Y-91552380D01*
X155885714Y-91600000D01*
X155933333Y-91647619D01*
X156314285Y-91647619D02*
X156361904Y-91600000D01*
X156457142Y-91552380D01*
X156695238Y-91552380D01*
X156790476Y-91600000D01*
X156838095Y-91647619D01*
X156885714Y-91742857D01*
X156885714Y-91838095D01*
X156838095Y-91980952D01*
X156266666Y-92552380D01*
X156885714Y-92552380D01*
X157742857Y-91885714D02*
X157742857Y-92552380D01*
X157504761Y-91504761D02*
X157266666Y-92219047D01*
X157885714Y-92219047D01*
X158695238Y-91552380D02*
X158504761Y-91552380D01*
X158409523Y-91600000D01*
X158361904Y-91647619D01*
X158266666Y-91790476D01*
X158219047Y-91980952D01*
X158219047Y-92361904D01*
X158266666Y-92457142D01*
X158314285Y-92504761D01*
X158409523Y-92552380D01*
X158600000Y-92552380D01*
X158695238Y-92504761D01*
X158742857Y-92457142D01*
X158790476Y-92361904D01*
X158790476Y-92123809D01*
X158742857Y-92028571D01*
X158695238Y-91980952D01*
X158600000Y-91933333D01*
X158409523Y-91933333D01*
X158314285Y-91980952D01*
X158266666Y-92028571D01*
X158219047Y-92123809D01*
X159361904Y-91980952D02*
X159266666Y-91933333D01*
X159219047Y-91885714D01*
X159171428Y-91790476D01*
X159171428Y-91742857D01*
X159219047Y-91647619D01*
X159266666Y-91600000D01*
X159361904Y-91552380D01*
X159552380Y-91552380D01*
X159647619Y-91600000D01*
X159695238Y-91647619D01*
X159742857Y-91742857D01*
X159742857Y-91790476D01*
X159695238Y-91885714D01*
X159647619Y-91933333D01*
X159552380Y-91980952D01*
X159361904Y-91980952D01*
X159266666Y-92028571D01*
X159219047Y-92076190D01*
X159171428Y-92171428D01*
X159171428Y-92361904D01*
X159219047Y-92457142D01*
X159266666Y-92504761D01*
X159361904Y-92552380D01*
X159552380Y-92552380D01*
X159647619Y-92504761D01*
X159695238Y-92457142D01*
X159742857Y-92361904D01*
X159742857Y-92171428D01*
X159695238Y-92076190D01*
X159647619Y-92028571D01*
X159552380Y-91980952D01*
%TO.C,C3*%
X153633333Y-102057142D02*
X153585714Y-102104761D01*
X153442857Y-102152380D01*
X153347619Y-102152380D01*
X153204761Y-102104761D01*
X153109523Y-102009523D01*
X153061904Y-101914285D01*
X153014285Y-101723809D01*
X153014285Y-101580952D01*
X153061904Y-101390476D01*
X153109523Y-101295238D01*
X153204761Y-101200000D01*
X153347619Y-101152380D01*
X153442857Y-101152380D01*
X153585714Y-101200000D01*
X153633333Y-101247619D01*
X153966666Y-101152380D02*
X154585714Y-101152380D01*
X154252380Y-101533333D01*
X154395238Y-101533333D01*
X154490476Y-101580952D01*
X154538095Y-101628571D01*
X154585714Y-101723809D01*
X154585714Y-101961904D01*
X154538095Y-102057142D01*
X154490476Y-102104761D01*
X154395238Y-102152380D01*
X154109523Y-102152380D01*
X154014285Y-102104761D01*
X153966666Y-102057142D01*
%TO.C,D1*%
X154439880Y-88038095D02*
X153439880Y-88038095D01*
X153439880Y-87800000D01*
X153487500Y-87657142D01*
X153582738Y-87561904D01*
X153677976Y-87514285D01*
X153868452Y-87466666D01*
X154011309Y-87466666D01*
X154201785Y-87514285D01*
X154297023Y-87561904D01*
X154392261Y-87657142D01*
X154439880Y-87800000D01*
X154439880Y-88038095D01*
X154439880Y-86514285D02*
X154439880Y-87085714D01*
X154439880Y-86800000D02*
X153439880Y-86800000D01*
X153582738Y-86895238D01*
X153677976Y-86990476D01*
X153725595Y-87085714D01*
%TO.C,JP1*%
X146966666Y-95752380D02*
X146966666Y-96466666D01*
X146919047Y-96609523D01*
X146823809Y-96704761D01*
X146680952Y-96752380D01*
X146585714Y-96752380D01*
X147442857Y-96752380D02*
X147442857Y-95752380D01*
X147823809Y-95752380D01*
X147919047Y-95800000D01*
X147966666Y-95847619D01*
X148014285Y-95942857D01*
X148014285Y-96085714D01*
X147966666Y-96180952D01*
X147919047Y-96228571D01*
X147823809Y-96276190D01*
X147442857Y-96276190D01*
X148966666Y-96752380D02*
X148395238Y-96752380D01*
X148680952Y-96752380D02*
X148680952Y-95752380D01*
X148585714Y-95895238D01*
X148490476Y-95990476D01*
X148395238Y-96038095D01*
%TO.C,R2*%
X147633333Y-91452380D02*
X147300000Y-90976190D01*
X147061904Y-91452380D02*
X147061904Y-90452380D01*
X147442857Y-90452380D01*
X147538095Y-90500000D01*
X147585714Y-90547619D01*
X147633333Y-90642857D01*
X147633333Y-90785714D01*
X147585714Y-90880952D01*
X147538095Y-90928571D01*
X147442857Y-90976190D01*
X147061904Y-90976190D01*
X148014285Y-90547619D02*
X148061904Y-90500000D01*
X148157142Y-90452380D01*
X148395238Y-90452380D01*
X148490476Y-90500000D01*
X148538095Y-90547619D01*
X148585714Y-90642857D01*
X148585714Y-90738095D01*
X148538095Y-90880952D01*
X147966666Y-91452380D01*
X148585714Y-91452380D01*
%TO.C,R1*%
X153933333Y-90252380D02*
X153600000Y-89776190D01*
X153361904Y-90252380D02*
X153361904Y-89252380D01*
X153742857Y-89252380D01*
X153838095Y-89300000D01*
X153885714Y-89347619D01*
X153933333Y-89442857D01*
X153933333Y-89585714D01*
X153885714Y-89680952D01*
X153838095Y-89728571D01*
X153742857Y-89776190D01*
X153361904Y-89776190D01*
X154885714Y-90252380D02*
X154314285Y-90252380D01*
X154600000Y-90252380D02*
X154600000Y-89252380D01*
X154504761Y-89395238D01*
X154409523Y-89490476D01*
X154314285Y-89538095D01*
%TO.C,C1*%
X139933333Y-91757142D02*
X139885714Y-91804761D01*
X139742857Y-91852380D01*
X139647619Y-91852380D01*
X139504761Y-91804761D01*
X139409523Y-91709523D01*
X139361904Y-91614285D01*
X139314285Y-91423809D01*
X139314285Y-91280952D01*
X139361904Y-91090476D01*
X139409523Y-90995238D01*
X139504761Y-90900000D01*
X139647619Y-90852380D01*
X139742857Y-90852380D01*
X139885714Y-90900000D01*
X139933333Y-90947619D01*
X140885714Y-91852380D02*
X140314285Y-91852380D01*
X140600000Y-91852380D02*
X140600000Y-90852380D01*
X140504761Y-90995238D01*
X140409523Y-91090476D01*
X140314285Y-91138095D01*
%TO.C,RV1*%
X146704761Y-93652380D02*
X146371428Y-93176190D01*
X146133333Y-93652380D02*
X146133333Y-92652380D01*
X146514285Y-92652380D01*
X146609523Y-92700000D01*
X146657142Y-92747619D01*
X146704761Y-92842857D01*
X146704761Y-92985714D01*
X146657142Y-93080952D01*
X146609523Y-93128571D01*
X146514285Y-93176190D01*
X146133333Y-93176190D01*
X146990476Y-92652380D02*
X147323809Y-93652380D01*
X147657142Y-92652380D01*
X148514285Y-93652380D02*
X147942857Y-93652380D01*
X148228571Y-93652380D02*
X148228571Y-92652380D01*
X148133333Y-92795238D01*
X148038095Y-92890476D01*
X147942857Y-92938095D01*
%TO.C,U2*%
X149038095Y-101252380D02*
X149038095Y-102061904D01*
X149085714Y-102157142D01*
X149133333Y-102204761D01*
X149228571Y-102252380D01*
X149419047Y-102252380D01*
X149514285Y-102204761D01*
X149561904Y-102157142D01*
X149609523Y-102061904D01*
X149609523Y-101252380D01*
X150038095Y-101347619D02*
X150085714Y-101300000D01*
X150180952Y-101252380D01*
X150419047Y-101252380D01*
X150514285Y-101300000D01*
X150561904Y-101347619D01*
X150609523Y-101442857D01*
X150609523Y-101538095D01*
X150561904Y-101680952D01*
X149990476Y-102252380D01*
X150609523Y-102252380D01*
%TO.C,J1*%
X155466666Y-101152380D02*
X155466666Y-101866666D01*
X155419047Y-102009523D01*
X155323809Y-102104761D01*
X155180952Y-102152380D01*
X155085714Y-102152380D01*
X156466666Y-102152380D02*
X155895238Y-102152380D01*
X156180952Y-102152380D02*
X156180952Y-101152380D01*
X156085714Y-101295238D01*
X155990476Y-101390476D01*
X155895238Y-101438095D01*
%TO.C,C2*%
X139933333Y-97057142D02*
X139885714Y-97104761D01*
X139742857Y-97152380D01*
X139647619Y-97152380D01*
X139504761Y-97104761D01*
X139409523Y-97009523D01*
X139361904Y-96914285D01*
X139314285Y-96723809D01*
X139314285Y-96580952D01*
X139361904Y-96390476D01*
X139409523Y-96295238D01*
X139504761Y-96200000D01*
X139647619Y-96152380D01*
X139742857Y-96152380D01*
X139885714Y-96200000D01*
X139933333Y-96247619D01*
X140314285Y-96247619D02*
X140361904Y-96200000D01*
X140457142Y-96152380D01*
X140695238Y-96152380D01*
X140790476Y-96200000D01*
X140838095Y-96247619D01*
X140885714Y-96342857D01*
X140885714Y-96438095D01*
X140838095Y-96580952D01*
X140266666Y-97152380D01*
X140885714Y-97152380D01*
%TO.C,U1*%
X135338095Y-92352380D02*
X135338095Y-93161904D01*
X135385714Y-93257142D01*
X135433333Y-93304761D01*
X135528571Y-93352380D01*
X135719047Y-93352380D01*
X135814285Y-93304761D01*
X135861904Y-93257142D01*
X135909523Y-93161904D01*
X135909523Y-92352380D01*
X136909523Y-93352380D02*
X136338095Y-93352380D01*
X136623809Y-93352380D02*
X136623809Y-92352380D01*
X136528571Y-92495238D01*
X136433333Y-92590476D01*
X136338095Y-92638095D01*
%TO.C,JP2*%
X140909166Y-101552380D02*
X140909166Y-102266666D01*
X140861547Y-102409523D01*
X140766309Y-102504761D01*
X140623452Y-102552380D01*
X140528214Y-102552380D01*
X141385357Y-102552380D02*
X141385357Y-101552380D01*
X141766309Y-101552380D01*
X141861547Y-101600000D01*
X141909166Y-101647619D01*
X141956785Y-101742857D01*
X141956785Y-101885714D01*
X141909166Y-101980952D01*
X141861547Y-102028571D01*
X141766309Y-102076190D01*
X141385357Y-102076190D01*
X142337738Y-101647619D02*
X142385357Y-101600000D01*
X142480595Y-101552380D01*
X142718690Y-101552380D01*
X142813928Y-101600000D01*
X142861547Y-101647619D01*
X142909166Y-101742857D01*
X142909166Y-101838095D01*
X142861547Y-101980952D01*
X142290119Y-102552380D01*
X142909166Y-102552380D01*
%TO.C,J2*%
X136551666Y-87052380D02*
X136551666Y-87766666D01*
X136504047Y-87909523D01*
X136408809Y-88004761D01*
X136265952Y-88052380D01*
X136170714Y-88052380D01*
X136980238Y-87147619D02*
X137027857Y-87100000D01*
X137123095Y-87052380D01*
X137361190Y-87052380D01*
X137456428Y-87100000D01*
X137504047Y-87147619D01*
X137551666Y-87242857D01*
X137551666Y-87338095D01*
X137504047Y-87480952D01*
X136932619Y-88052380D01*
X137551666Y-88052380D01*
%TO.C,U3*%
X135338095Y-95552380D02*
X135338095Y-96361904D01*
X135385714Y-96457142D01*
X135433333Y-96504761D01*
X135528571Y-96552380D01*
X135719047Y-96552380D01*
X135814285Y-96504761D01*
X135861904Y-96457142D01*
X135909523Y-96361904D01*
X135909523Y-95552380D01*
X136290476Y-95552380D02*
X136909523Y-95552380D01*
X136576190Y-95933333D01*
X136719047Y-95933333D01*
X136814285Y-95980952D01*
X136861904Y-96028571D01*
X136909523Y-96123809D01*
X136909523Y-96361904D01*
X136861904Y-96457142D01*
X136814285Y-96504761D01*
X136719047Y-96552380D01*
X136433333Y-96552380D01*
X136338095Y-96504761D01*
X136290476Y-96457142D01*
D11*
%TO.C,C3*%
X154065000Y-98938748D02*
X154065000Y-99461252D01*
X155535000Y-98938748D02*
X155535000Y-99461252D01*
%TO.C,D1*%
X153072500Y-89035000D02*
X153072500Y-86765000D01*
X149187500Y-89035000D02*
X153072500Y-89035000D01*
X153072500Y-86765000D02*
X149187500Y-86765000D01*
%TO.C,JP1*%
X145742500Y-101350000D02*
X145742500Y-97250000D01*
X145242500Y-97700000D02*
X145242500Y-98300000D01*
X147742500Y-101350000D02*
X145742500Y-101350000D01*
X145742500Y-97250000D02*
X147742500Y-97250000D01*
X145542500Y-98000000D02*
X145242500Y-97700000D01*
X145542500Y-98000000D02*
X145242500Y-98300000D01*
X147742500Y-97250000D02*
X147742500Y-101350000D01*
%TO.C,R2*%
X150272936Y-93035000D02*
X150727064Y-93035000D01*
X150272936Y-91565000D02*
X150727064Y-91565000D01*
%TO.C,R1*%
X151602064Y-90935000D02*
X151147936Y-90935000D01*
X151602064Y-89465000D02*
X151147936Y-89465000D01*
%TO.C,C1*%
X138835000Y-91938748D02*
X138835000Y-92461252D01*
X137365000Y-91938748D02*
X137365000Y-92461252D01*
%TO.C,RV1*%
X141618000Y-91314000D02*
X144666000Y-91314000D01*
X145682000Y-94616000D02*
X145682000Y-92584000D01*
X141618000Y-92584000D02*
X141618000Y-91314000D01*
X141618000Y-94616000D02*
X141618000Y-95886000D01*
X141618000Y-95886000D02*
X144666000Y-95886000D01*
%TO.C,U2*%
X150400000Y-100760000D02*
X152200000Y-100760000D01*
X152200000Y-97540000D02*
X149750000Y-97540000D01*
%TO.C,J1*%
X156870000Y-96345000D02*
X156870000Y-101485000D01*
X156870000Y-101485000D02*
X159530000Y-101485000D01*
X156870000Y-96345000D02*
X159530000Y-96345000D01*
X159530000Y-96345000D02*
X159530000Y-101485000D01*
X156870000Y-95075000D02*
X156870000Y-93745000D01*
X156870000Y-93745000D02*
X158200000Y-93745000D01*
%TO.C,C2*%
X138835000Y-95961252D02*
X138835000Y-95438748D01*
X137365000Y-95961252D02*
X137365000Y-95438748D01*
%TO.C,U1*%
X133100000Y-92840000D02*
X133750000Y-92840000D01*
X133100000Y-95960000D02*
X132450000Y-95960000D01*
X133100000Y-92840000D02*
X131425000Y-92840000D01*
X133100000Y-95960000D02*
X133750000Y-95960000D01*
%TO.C,JP2*%
X142842500Y-97250000D02*
X144842500Y-97250000D01*
X142842500Y-101350000D02*
X142842500Y-97250000D01*
X145042500Y-100600000D02*
X145342500Y-100300000D01*
X145342500Y-100900000D02*
X145342500Y-100300000D01*
X144842500Y-101350000D02*
X142842500Y-101350000D01*
X144842500Y-97250000D02*
X144842500Y-101350000D01*
X145042500Y-100600000D02*
X145342500Y-100900000D01*
%TO.C,G\u002A\u002A\u002A*%
G36*
X156013529Y-93287044D02*
G01*
X156127994Y-93291972D01*
X156195237Y-93301824D01*
X156208740Y-93314482D01*
X156168515Y-93332057D01*
X156085846Y-93343572D01*
X156015173Y-93346192D01*
X155883659Y-93352761D01*
X155703859Y-93371233D01*
X155489396Y-93399756D01*
X155253894Y-93436481D01*
X155010978Y-93479556D01*
X154955456Y-93490173D01*
X154821232Y-93515901D01*
X154733459Y-93529074D01*
X154676174Y-93528417D01*
X154633419Y-93512651D01*
X154589233Y-93480499D01*
X154562668Y-93458740D01*
X154470405Y-93383306D01*
X154610234Y-93366828D01*
X154815192Y-93345151D01*
X155032945Y-93326433D01*
X155254917Y-93310953D01*
X155472535Y-93298994D01*
X155677225Y-93290835D01*
X155860414Y-93286758D01*
X156013529Y-93287044D01*
G37*
G36*
X151642447Y-95552201D02*
G01*
X151712909Y-95563295D01*
X151829045Y-95575428D01*
X151973168Y-95586940D01*
X152090795Y-95594266D01*
X152246951Y-95603776D01*
X152353619Y-95614330D01*
X152424693Y-95629251D01*
X152474067Y-95651860D01*
X152515632Y-95685478D01*
X152529621Y-95699171D01*
X152579776Y-95762010D01*
X152597002Y-95810599D01*
X152594695Y-95818085D01*
X152552390Y-95836206D01*
X152465036Y-95845402D01*
X152350450Y-95845105D01*
X152226450Y-95834750D01*
X152197379Y-95830722D01*
X152021209Y-95792148D01*
X151853022Y-95734097D01*
X151714444Y-95664848D01*
X151657629Y-95624087D01*
X151547316Y-95529352D01*
X151642447Y-95552201D01*
G37*
G36*
X155273233Y-93647067D02*
G01*
X155410730Y-93652404D01*
X155531621Y-93661349D01*
X155619947Y-93673534D01*
X155658521Y-93687079D01*
X155669023Y-93709359D01*
X155638199Y-93721695D01*
X155556856Y-93726547D01*
X155509526Y-93726942D01*
X155369146Y-93730427D01*
X155209184Y-93739148D01*
X155111253Y-93746967D01*
X154980632Y-93754394D01*
X154904317Y-93746030D01*
X154878178Y-93728777D01*
X154869540Y-93681402D01*
X154876355Y-93669114D01*
X154920691Y-93656359D01*
X155012254Y-93648678D01*
X155135088Y-93645702D01*
X155273233Y-93647067D01*
G37*
G36*
X152580119Y-93906077D02*
G01*
X152766595Y-93690763D01*
X152995813Y-93516639D01*
X153122525Y-93448529D01*
X153377894Y-93359910D01*
X153649812Y-93322431D01*
X153925671Y-93334375D01*
X154192865Y-93394023D01*
X154438788Y-93499657D01*
X154650834Y-93649562D01*
X154660158Y-93658038D01*
X154869832Y-93890438D01*
X155021660Y-94146625D01*
X155114415Y-94422625D01*
X155146871Y-94714464D01*
X155117802Y-95018168D01*
X155102047Y-95090262D01*
X155008848Y-95347122D01*
X154864851Y-95576312D01*
X154678424Y-95772996D01*
X154457936Y-95932337D01*
X154211758Y-96049496D01*
X153948259Y-96119637D01*
X153675807Y-96137923D01*
X153402773Y-96099516D01*
X153370662Y-96090950D01*
X153075424Y-95979540D01*
X152826184Y-95825399D01*
X152624849Y-95631020D01*
X152473328Y-95398897D01*
X152373529Y-95131521D01*
X152327362Y-94831387D01*
X152324220Y-94723931D01*
X152354223Y-94430183D01*
X152357642Y-94419356D01*
X153127944Y-94419356D01*
X153134841Y-94483793D01*
X153146484Y-94500963D01*
X153206746Y-94543031D01*
X153243821Y-94551186D01*
X153309423Y-94528312D01*
X153341158Y-94500963D01*
X153362994Y-94436574D01*
X153334432Y-94378892D01*
X153267303Y-94346861D01*
X153243821Y-94345069D01*
X153168214Y-94366798D01*
X153127944Y-94419356D01*
X152357642Y-94419356D01*
X152441092Y-94155058D01*
X152580119Y-93906077D01*
G37*
G36*
X155727634Y-92875160D02*
G01*
X156049354Y-92895246D01*
X156328638Y-92931218D01*
X156468160Y-92955652D01*
X156582738Y-92977497D01*
X156659029Y-92994096D01*
X156683677Y-93001946D01*
X156661392Y-93006648D01*
X156590418Y-93006924D01*
X156485332Y-93002779D01*
X156468648Y-93001842D01*
X156226491Y-92998711D01*
X155940713Y-93013015D01*
X155628084Y-93042829D01*
X155305376Y-93086227D01*
X154989361Y-93141283D01*
X154702497Y-93204649D01*
X154588544Y-93232387D01*
X154486995Y-93255968D01*
X154443833Y-93265324D01*
X154364235Y-93284041D01*
X154316991Y-93298159D01*
X154255679Y-93296049D01*
X154226842Y-93282924D01*
X154159482Y-93259025D01*
X154093944Y-93251547D01*
X154014888Y-93243397D01*
X153991175Y-93221951D01*
X154016764Y-93189856D01*
X154085616Y-93149762D01*
X154191690Y-93104316D01*
X154328945Y-93056167D01*
X154491341Y-93007963D01*
X154672838Y-92962354D01*
X154829003Y-92929266D01*
X155096295Y-92892142D01*
X155402893Y-92874116D01*
X155727634Y-92875160D01*
G37*
G36*
X154987270Y-95653121D02*
G01*
X155008075Y-95704896D01*
X155043384Y-95750559D01*
X155129779Y-95844312D01*
X155214021Y-95944918D01*
X155304288Y-96063249D01*
X155408760Y-96210174D01*
X155535617Y-96396563D01*
X155584506Y-96469663D01*
X155684250Y-96617382D01*
X155773212Y-96745563D01*
X155844981Y-96845253D01*
X155893145Y-96907493D01*
X155909833Y-96924178D01*
X155937290Y-96960575D01*
X155939201Y-96975789D01*
X155961461Y-97028970D01*
X155986767Y-97056305D01*
X156026630Y-97102080D01*
X156034333Y-97123608D01*
X156004570Y-97133803D01*
X155923057Y-97142178D01*
X155801453Y-97147988D01*
X155651418Y-97150484D01*
X155614170Y-97150512D01*
X155194008Y-97149587D01*
X155051311Y-96954533D01*
X154980561Y-96856296D01*
X154924738Y-96775959D01*
X154894465Y-96728861D01*
X154892759Y-96725557D01*
X154867178Y-96680665D01*
X154819805Y-96604357D01*
X154789701Y-96557497D01*
X154739685Y-96477327D01*
X154708141Y-96420543D01*
X154702497Y-96405589D01*
X154685915Y-96371465D01*
X154646065Y-96308532D01*
X154597788Y-96238676D01*
X154555929Y-96183778D01*
X154541632Y-96168415D01*
X154516051Y-96127929D01*
X154503751Y-96099050D01*
X154507925Y-96054888D01*
X154558598Y-96005243D01*
X154622017Y-95964680D01*
X154726600Y-95889783D01*
X154832759Y-95793130D01*
X154873323Y-95748651D01*
X154934204Y-95682378D01*
X154975588Y-95649448D01*
X154987270Y-95653121D01*
G37*
G36*
X152193843Y-94801334D02*
G01*
X152214751Y-94871814D01*
X152227230Y-94963709D01*
X152228656Y-95001983D01*
X152241537Y-95092614D01*
X152271969Y-95190934D01*
X152272513Y-95192245D01*
X152314074Y-95299236D01*
X152349034Y-95399438D01*
X152382132Y-95502497D01*
X152091566Y-95498086D01*
X151923506Y-95491105D01*
X151743689Y-95476657D01*
X151586569Y-95457623D01*
X151563171Y-95453901D01*
X151370675Y-95418702D01*
X151209061Y-95383219D01*
X151086736Y-95349697D01*
X151012104Y-95320384D01*
X150992385Y-95301338D01*
X151015596Y-95286211D01*
X151037901Y-95291205D01*
X151120067Y-95300820D01*
X151240052Y-95287959D01*
X151383248Y-95257283D01*
X151535048Y-95213450D01*
X151680843Y-95161120D01*
X151806026Y-95104953D01*
X151895987Y-95049606D01*
X151934428Y-95005254D01*
X151970942Y-94966853D01*
X151986726Y-94963330D01*
X152026904Y-94939155D01*
X152078352Y-94879920D01*
X152086392Y-94868290D01*
X152133253Y-94805630D01*
X152166613Y-94774127D01*
X152169898Y-94773250D01*
X152193843Y-94801334D01*
G37*
G36*
X157334457Y-97120721D02*
G01*
X157308758Y-97147976D01*
X157286892Y-97151436D01*
X157244584Y-97144651D01*
X157239326Y-97138973D01*
X157264122Y-97118526D01*
X157286892Y-97108258D01*
X157327724Y-97107599D01*
X157334457Y-97120721D01*
G37*
%TO.C,J2*%
X146155000Y-87170000D02*
X146155000Y-88500000D01*
X143555000Y-87170000D02*
X143555000Y-89830000D01*
X143555000Y-87170000D02*
X138415000Y-87170000D01*
X138415000Y-87170000D02*
X138415000Y-89830000D01*
X143555000Y-89830000D02*
X138415000Y-89830000D01*
X144825000Y-87170000D02*
X146155000Y-87170000D01*
%TD*%
M02*
