%TF.GenerationSoftware,KiCad,Pcbnew,(6.0.8-1)-1*%
%TF.CreationDate,2022-12-20T12:21:18-06:00*%
%TF.ProjectId,HallEffectSensor,48616c6c-4566-4666-9563-7453656e736f,rev?*%
%TF.SameCoordinates,Original*%
%TF.FileFunction,Drillmap*%
%TF.FilePolarity,Positive*%
%FSLAX45Y45*%
G04 Gerber Fmt 4.5, Leading zero omitted, Abs format (unit mm)*
G04 Created by KiCad (PCBNEW (6.0.8-1)-1) date 2022-12-20 12:21:18*
%MOMM*%
%LPD*%
G01*
G04 APERTURE LIST*
%ADD10C,0.100000*%
%ADD11C,0.200000*%
G04 APERTURE END LIST*
D10*
X16070000Y-10290000D02*
X13570000Y-10290000D01*
X13570000Y-10290000D02*
X13570000Y-9690000D01*
X13070000Y-9690000D02*
X13070000Y-9190000D01*
X13570000Y-8590000D02*
X16070000Y-8590000D01*
X13070000Y-9190000D02*
X13570000Y-9190000D01*
X13570000Y-9190000D02*
X13570000Y-8590000D01*
X16070000Y-8590000D02*
X16070000Y-10290000D01*
X13570000Y-9690000D02*
X13070000Y-9690000D01*
D11*
X13322619Y-10605476D02*
X13322619Y-10405476D01*
X13370238Y-10405476D01*
X13398809Y-10415000D01*
X13417857Y-10434048D01*
X13427381Y-10453095D01*
X13436905Y-10491190D01*
X13436905Y-10519762D01*
X13427381Y-10557857D01*
X13417857Y-10576905D01*
X13398809Y-10595952D01*
X13370238Y-10605476D01*
X13322619Y-10605476D01*
X13522619Y-10605476D02*
X13522619Y-10472143D01*
X13522619Y-10510238D02*
X13532143Y-10491190D01*
X13541667Y-10481667D01*
X13560714Y-10472143D01*
X13579762Y-10472143D01*
X13646428Y-10605476D02*
X13646428Y-10472143D01*
X13646428Y-10405476D02*
X13636905Y-10415000D01*
X13646428Y-10424524D01*
X13655952Y-10415000D01*
X13646428Y-10405476D01*
X13646428Y-10424524D01*
X13770238Y-10605476D02*
X13751190Y-10595952D01*
X13741667Y-10576905D01*
X13741667Y-10405476D01*
X13875000Y-10605476D02*
X13855952Y-10595952D01*
X13846428Y-10576905D01*
X13846428Y-10405476D01*
X14103571Y-10605476D02*
X14103571Y-10405476D01*
X14170238Y-10548333D01*
X14236905Y-10405476D01*
X14236905Y-10605476D01*
X14417857Y-10605476D02*
X14417857Y-10500714D01*
X14408333Y-10481667D01*
X14389286Y-10472143D01*
X14351190Y-10472143D01*
X14332143Y-10481667D01*
X14417857Y-10595952D02*
X14398809Y-10605476D01*
X14351190Y-10605476D01*
X14332143Y-10595952D01*
X14322619Y-10576905D01*
X14322619Y-10557857D01*
X14332143Y-10538810D01*
X14351190Y-10529286D01*
X14398809Y-10529286D01*
X14417857Y-10519762D01*
X14513095Y-10472143D02*
X14513095Y-10672143D01*
X14513095Y-10481667D02*
X14532143Y-10472143D01*
X14570238Y-10472143D01*
X14589286Y-10481667D01*
X14598809Y-10491190D01*
X14608333Y-10510238D01*
X14608333Y-10567381D01*
X14598809Y-10586429D01*
X14589286Y-10595952D01*
X14570238Y-10605476D01*
X14532143Y-10605476D01*
X14513095Y-10595952D01*
X14694048Y-10586429D02*
X14703571Y-10595952D01*
X14694048Y-10605476D01*
X14684524Y-10595952D01*
X14694048Y-10586429D01*
X14694048Y-10605476D01*
X14694048Y-10481667D02*
X14703571Y-10491190D01*
X14694048Y-10500714D01*
X14684524Y-10491190D01*
X14694048Y-10481667D01*
X14694048Y-10500714D01*
M02*
