%TF.GenerationSoftware,KiCad,Pcbnew,(6.0.8-1)-1*%
%TF.CreationDate,2022-12-20T12:21:18-06:00*%
%TF.ProjectId,HallEffectSensor,48616c6c-4566-4666-9563-7453656e736f,rev?*%
%TF.SameCoordinates,Original*%
%TF.FileFunction,Drillmap*%
%TF.FilePolarity,Positive*%
%FSLAX45Y45*%
G04 Gerber Fmt 4.5, Leading zero omitted, Abs format (unit mm)*
G04 Created by KiCad (PCBNEW (6.0.8-1)-1) date 2022-12-20 12:21:18*
%MOMM*%
%LPD*%
G01*
G04 APERTURE LIST*
%ADD10C,0.100000*%
%ADD11C,0.200000*%
%ADD12C,0.040000*%
%ADD13C,0.220000*%
G04 APERTURE END LIST*
D10*
X16070000Y-10290000D02*
X13570000Y-10290000D01*
X13570000Y-10290000D02*
X13570000Y-9690000D01*
X13070000Y-9690000D02*
X13070000Y-9190000D01*
X13570000Y-8590000D02*
X16070000Y-8590000D01*
X13070000Y-9190000D02*
X13570000Y-9190000D01*
X13570000Y-9190000D02*
X13570000Y-8590000D01*
X16070000Y-8590000D02*
X16070000Y-10290000D01*
X13570000Y-9690000D02*
X13070000Y-9690000D01*
D11*
D12*
X13100000Y-9410000D02*
X13140000Y-9450000D01*
X13140000Y-9410000D02*
X13100000Y-9450000D01*
X13200000Y-9420000D02*
X13240000Y-9460000D01*
X13240000Y-9420000D02*
X13200000Y-9460000D01*
X13520000Y-9420000D02*
X13560000Y-9460000D01*
X13560000Y-9420000D02*
X13520000Y-9460000D01*
X13930000Y-9370000D02*
X13970000Y-9410000D01*
X13970000Y-9370000D02*
X13930000Y-9410000D01*
X13965000Y-9645000D02*
X14005000Y-9685000D01*
X14005000Y-9645000D02*
X13965000Y-9685000D01*
X14040000Y-9430000D02*
X14080000Y-9470000D01*
X14080000Y-9430000D02*
X14040000Y-9470000D01*
X14090000Y-9650000D02*
X14130000Y-9690000D01*
X14130000Y-9650000D02*
X14090000Y-9690000D01*
X14510000Y-9910000D02*
X14550000Y-9950000D01*
X14550000Y-9910000D02*
X14510000Y-9950000D01*
X14620000Y-9510000D02*
X14660000Y-9550000D01*
X14660000Y-9510000D02*
X14620000Y-9550000D01*
X14980000Y-9710000D02*
X15020000Y-9750000D01*
X15020000Y-9710000D02*
X14980000Y-9750000D01*
X15110000Y-9890000D02*
X15150000Y-9930000D01*
X15150000Y-9890000D02*
X15110000Y-9930000D01*
X15140000Y-10070000D02*
X15180000Y-10110000D01*
X15180000Y-10070000D02*
X15140000Y-10110000D01*
X15200000Y-9330000D02*
X15240000Y-9370000D01*
X15240000Y-9330000D02*
X15200000Y-9370000D01*
D10*
X14024500Y-8850000D02*
G75*
G03*
X14024500Y-8850000I-50000J0D01*
G01*
X14278500Y-8850000D02*
G75*
G03*
X14278500Y-8850000I-50000J0D01*
G01*
X14532500Y-8850000D02*
G75*
G03*
X14532500Y-8850000I-50000J0D01*
G01*
X15870000Y-9507500D02*
G75*
G03*
X15870000Y-9507500I-50000J0D01*
G01*
X15870000Y-9761500D02*
G75*
G03*
X15870000Y-9761500I-50000J0D01*
G01*
X15870000Y-10015500D02*
G75*
G03*
X15870000Y-10015500I-50000J0D01*
G01*
D13*
X13850000Y-9900000D02*
X13850000Y-10120000D01*
X13740000Y-10010000D02*
X13960000Y-10010000D01*
X15790000Y-8760000D02*
X15790000Y-8980000D01*
X15680000Y-8870000D02*
X15900000Y-8870000D01*
D11*
X13322619Y-10605476D02*
X13322619Y-10405476D01*
X13370238Y-10405476D01*
X13398809Y-10415000D01*
X13417857Y-10434048D01*
X13427381Y-10453095D01*
X13436905Y-10491190D01*
X13436905Y-10519762D01*
X13427381Y-10557857D01*
X13417857Y-10576905D01*
X13398809Y-10595952D01*
X13370238Y-10605476D01*
X13322619Y-10605476D01*
X13522619Y-10605476D02*
X13522619Y-10472143D01*
X13522619Y-10510238D02*
X13532143Y-10491190D01*
X13541667Y-10481667D01*
X13560714Y-10472143D01*
X13579762Y-10472143D01*
X13646428Y-10605476D02*
X13646428Y-10472143D01*
X13646428Y-10405476D02*
X13636905Y-10415000D01*
X13646428Y-10424524D01*
X13655952Y-10415000D01*
X13646428Y-10405476D01*
X13646428Y-10424524D01*
X13770238Y-10605476D02*
X13751190Y-10595952D01*
X13741667Y-10576905D01*
X13741667Y-10405476D01*
X13875000Y-10605476D02*
X13855952Y-10595952D01*
X13846428Y-10576905D01*
X13846428Y-10405476D01*
X14103571Y-10605476D02*
X14103571Y-10405476D01*
X14170238Y-10548333D01*
X14236905Y-10405476D01*
X14236905Y-10605476D01*
X14417857Y-10605476D02*
X14417857Y-10500714D01*
X14408333Y-10481667D01*
X14389286Y-10472143D01*
X14351190Y-10472143D01*
X14332143Y-10481667D01*
X14417857Y-10595952D02*
X14398809Y-10605476D01*
X14351190Y-10605476D01*
X14332143Y-10595952D01*
X14322619Y-10576905D01*
X14322619Y-10557857D01*
X14332143Y-10538810D01*
X14351190Y-10529286D01*
X14398809Y-10529286D01*
X14417857Y-10519762D01*
X14513095Y-10472143D02*
X14513095Y-10672143D01*
X14513095Y-10481667D02*
X14532143Y-10472143D01*
X14570238Y-10472143D01*
X14589286Y-10481667D01*
X14598809Y-10491190D01*
X14608333Y-10510238D01*
X14608333Y-10567381D01*
X14598809Y-10586429D01*
X14589286Y-10595952D01*
X14570238Y-10605476D01*
X14532143Y-10605476D01*
X14513095Y-10595952D01*
X14694048Y-10586429D02*
X14703571Y-10595952D01*
X14694048Y-10605476D01*
X14684524Y-10595952D01*
X14694048Y-10586429D01*
X14694048Y-10605476D01*
X14694048Y-10481667D02*
X14703571Y-10491190D01*
X14694048Y-10500714D01*
X14684524Y-10491190D01*
X14694048Y-10481667D01*
X14694048Y-10500714D01*
D12*
X13025000Y-10915000D02*
X13065000Y-10955000D01*
X13065000Y-10915000D02*
X13025000Y-10955000D01*
D11*
X13360714Y-10825476D02*
X13379762Y-10825476D01*
X13398809Y-10835000D01*
X13408333Y-10844524D01*
X13417857Y-10863571D01*
X13427381Y-10901667D01*
X13427381Y-10949286D01*
X13417857Y-10987381D01*
X13408333Y-11006429D01*
X13398809Y-11015952D01*
X13379762Y-11025476D01*
X13360714Y-11025476D01*
X13341667Y-11015952D01*
X13332143Y-11006429D01*
X13322619Y-10987381D01*
X13313095Y-10949286D01*
X13313095Y-10901667D01*
X13322619Y-10863571D01*
X13332143Y-10844524D01*
X13341667Y-10835000D01*
X13360714Y-10825476D01*
X13513095Y-11006429D02*
X13522619Y-11015952D01*
X13513095Y-11025476D01*
X13503571Y-11015952D01*
X13513095Y-11006429D01*
X13513095Y-11025476D01*
X13694048Y-10892143D02*
X13694048Y-11025476D01*
X13646428Y-10815952D02*
X13598809Y-10958810D01*
X13722619Y-10958810D01*
X13836905Y-10825476D02*
X13855952Y-10825476D01*
X13875000Y-10835000D01*
X13884524Y-10844524D01*
X13894048Y-10863571D01*
X13903571Y-10901667D01*
X13903571Y-10949286D01*
X13894048Y-10987381D01*
X13884524Y-11006429D01*
X13875000Y-11015952D01*
X13855952Y-11025476D01*
X13836905Y-11025476D01*
X13817857Y-11015952D01*
X13808333Y-11006429D01*
X13798809Y-10987381D01*
X13789286Y-10949286D01*
X13789286Y-10901667D01*
X13798809Y-10863571D01*
X13808333Y-10844524D01*
X13817857Y-10835000D01*
X13836905Y-10825476D01*
X14027381Y-10825476D02*
X14046428Y-10825476D01*
X14065476Y-10835000D01*
X14075000Y-10844524D01*
X14084524Y-10863571D01*
X14094048Y-10901667D01*
X14094048Y-10949286D01*
X14084524Y-10987381D01*
X14075000Y-11006429D01*
X14065476Y-11015952D01*
X14046428Y-11025476D01*
X14027381Y-11025476D01*
X14008333Y-11015952D01*
X13998809Y-11006429D01*
X13989286Y-10987381D01*
X13979762Y-10949286D01*
X13979762Y-10901667D01*
X13989286Y-10863571D01*
X13998809Y-10844524D01*
X14008333Y-10835000D01*
X14027381Y-10825476D01*
X14179762Y-11025476D02*
X14179762Y-10892143D01*
X14179762Y-10911190D02*
X14189286Y-10901667D01*
X14208333Y-10892143D01*
X14236905Y-10892143D01*
X14255952Y-10901667D01*
X14265476Y-10920714D01*
X14265476Y-11025476D01*
X14265476Y-10920714D02*
X14275000Y-10901667D01*
X14294048Y-10892143D01*
X14322619Y-10892143D01*
X14341667Y-10901667D01*
X14351190Y-10920714D01*
X14351190Y-11025476D01*
X14446428Y-11025476D02*
X14446428Y-10892143D01*
X14446428Y-10911190D02*
X14455952Y-10901667D01*
X14475000Y-10892143D01*
X14503571Y-10892143D01*
X14522619Y-10901667D01*
X14532143Y-10920714D01*
X14532143Y-11025476D01*
X14532143Y-10920714D02*
X14541667Y-10901667D01*
X14560714Y-10892143D01*
X14589286Y-10892143D01*
X14608333Y-10901667D01*
X14617857Y-10920714D01*
X14617857Y-11025476D01*
X15008333Y-10815952D02*
X14836905Y-11073095D01*
X15265476Y-10825476D02*
X15284524Y-10825476D01*
X15303571Y-10835000D01*
X15313095Y-10844524D01*
X15322619Y-10863571D01*
X15332143Y-10901667D01*
X15332143Y-10949286D01*
X15322619Y-10987381D01*
X15313095Y-11006429D01*
X15303571Y-11015952D01*
X15284524Y-11025476D01*
X15265476Y-11025476D01*
X15246428Y-11015952D01*
X15236905Y-11006429D01*
X15227381Y-10987381D01*
X15217857Y-10949286D01*
X15217857Y-10901667D01*
X15227381Y-10863571D01*
X15236905Y-10844524D01*
X15246428Y-10835000D01*
X15265476Y-10825476D01*
X15417857Y-11006429D02*
X15427381Y-11015952D01*
X15417857Y-11025476D01*
X15408333Y-11015952D01*
X15417857Y-11006429D01*
X15417857Y-11025476D01*
X15551190Y-10825476D02*
X15570238Y-10825476D01*
X15589286Y-10835000D01*
X15598809Y-10844524D01*
X15608333Y-10863571D01*
X15617857Y-10901667D01*
X15617857Y-10949286D01*
X15608333Y-10987381D01*
X15598809Y-11006429D01*
X15589286Y-11015952D01*
X15570238Y-11025476D01*
X15551190Y-11025476D01*
X15532143Y-11015952D01*
X15522619Y-11006429D01*
X15513095Y-10987381D01*
X15503571Y-10949286D01*
X15503571Y-10901667D01*
X15513095Y-10863571D01*
X15522619Y-10844524D01*
X15532143Y-10835000D01*
X15551190Y-10825476D01*
X15808333Y-11025476D02*
X15694048Y-11025476D01*
X15751190Y-11025476D02*
X15751190Y-10825476D01*
X15732143Y-10854048D01*
X15713095Y-10873095D01*
X15694048Y-10882619D01*
X15989286Y-10825476D02*
X15894048Y-10825476D01*
X15884524Y-10920714D01*
X15894048Y-10911190D01*
X15913095Y-10901667D01*
X15960714Y-10901667D01*
X15979762Y-10911190D01*
X15989286Y-10920714D01*
X15998809Y-10939762D01*
X15998809Y-10987381D01*
X15989286Y-11006429D01*
X15979762Y-11015952D01*
X15960714Y-11025476D01*
X15913095Y-11025476D01*
X15894048Y-11015952D01*
X15884524Y-11006429D01*
X16065476Y-10825476D02*
X16198809Y-10825476D01*
X16113095Y-11025476D01*
X16265476Y-10825476D02*
X16265476Y-10863571D01*
X16341667Y-10825476D02*
X16341667Y-10863571D01*
X16636905Y-11101667D02*
X16627381Y-11092143D01*
X16608333Y-11063571D01*
X16598809Y-11044524D01*
X16589286Y-11015952D01*
X16579762Y-10968333D01*
X16579762Y-10930238D01*
X16589286Y-10882619D01*
X16598809Y-10854048D01*
X16608333Y-10835000D01*
X16627381Y-10806429D01*
X16636905Y-10796905D01*
X16817857Y-11025476D02*
X16703571Y-11025476D01*
X16760714Y-11025476D02*
X16760714Y-10825476D01*
X16741667Y-10854048D01*
X16722619Y-10873095D01*
X16703571Y-10882619D01*
X16884524Y-10825476D02*
X17008333Y-10825476D01*
X16941667Y-10901667D01*
X16970238Y-10901667D01*
X16989286Y-10911190D01*
X16998810Y-10920714D01*
X17008333Y-10939762D01*
X17008333Y-10987381D01*
X16998810Y-11006429D01*
X16989286Y-11015952D01*
X16970238Y-11025476D01*
X16913095Y-11025476D01*
X16894048Y-11015952D01*
X16884524Y-11006429D01*
X17246429Y-11025476D02*
X17246429Y-10825476D01*
X17332143Y-11025476D02*
X17332143Y-10920714D01*
X17322619Y-10901667D01*
X17303571Y-10892143D01*
X17275000Y-10892143D01*
X17255952Y-10901667D01*
X17246429Y-10911190D01*
X17455952Y-11025476D02*
X17436905Y-11015952D01*
X17427381Y-11006429D01*
X17417857Y-10987381D01*
X17417857Y-10930238D01*
X17427381Y-10911190D01*
X17436905Y-10901667D01*
X17455952Y-10892143D01*
X17484524Y-10892143D01*
X17503571Y-10901667D01*
X17513095Y-10911190D01*
X17522619Y-10930238D01*
X17522619Y-10987381D01*
X17513095Y-11006429D01*
X17503571Y-11015952D01*
X17484524Y-11025476D01*
X17455952Y-11025476D01*
X17636905Y-11025476D02*
X17617857Y-11015952D01*
X17608333Y-10996905D01*
X17608333Y-10825476D01*
X17789286Y-11015952D02*
X17770238Y-11025476D01*
X17732143Y-11025476D01*
X17713095Y-11015952D01*
X17703571Y-10996905D01*
X17703571Y-10920714D01*
X17713095Y-10901667D01*
X17732143Y-10892143D01*
X17770238Y-10892143D01*
X17789286Y-10901667D01*
X17798810Y-10920714D01*
X17798810Y-10939762D01*
X17703571Y-10958810D01*
X17875000Y-11015952D02*
X17894048Y-11025476D01*
X17932143Y-11025476D01*
X17951190Y-11015952D01*
X17960714Y-10996905D01*
X17960714Y-10987381D01*
X17951190Y-10968333D01*
X17932143Y-10958810D01*
X17903571Y-10958810D01*
X17884524Y-10949286D01*
X17875000Y-10930238D01*
X17875000Y-10920714D01*
X17884524Y-10901667D01*
X17903571Y-10892143D01*
X17932143Y-10892143D01*
X17951190Y-10901667D01*
X18027381Y-11101667D02*
X18036905Y-11092143D01*
X18055952Y-11063571D01*
X18065476Y-11044524D01*
X18075000Y-11015952D01*
X18084524Y-10968333D01*
X18084524Y-10930238D01*
X18075000Y-10882619D01*
X18065476Y-10854048D01*
X18055952Y-10835000D01*
X18036905Y-10806429D01*
X18027381Y-10796905D01*
D10*
X13065000Y-11199000D02*
G75*
G03*
X13065000Y-11199000I-50000J0D01*
G01*
D11*
X13427381Y-11289476D02*
X13313095Y-11289476D01*
X13370238Y-11289476D02*
X13370238Y-11089476D01*
X13351190Y-11118048D01*
X13332143Y-11137095D01*
X13313095Y-11146619D01*
X13513095Y-11270428D02*
X13522619Y-11279952D01*
X13513095Y-11289476D01*
X13503571Y-11279952D01*
X13513095Y-11270428D01*
X13513095Y-11289476D01*
X13646428Y-11089476D02*
X13665476Y-11089476D01*
X13684524Y-11099000D01*
X13694048Y-11108524D01*
X13703571Y-11127571D01*
X13713095Y-11165667D01*
X13713095Y-11213286D01*
X13703571Y-11251381D01*
X13694048Y-11270428D01*
X13684524Y-11279952D01*
X13665476Y-11289476D01*
X13646428Y-11289476D01*
X13627381Y-11279952D01*
X13617857Y-11270428D01*
X13608333Y-11251381D01*
X13598809Y-11213286D01*
X13598809Y-11165667D01*
X13608333Y-11127571D01*
X13617857Y-11108524D01*
X13627381Y-11099000D01*
X13646428Y-11089476D01*
X13836905Y-11089476D02*
X13855952Y-11089476D01*
X13875000Y-11099000D01*
X13884524Y-11108524D01*
X13894048Y-11127571D01*
X13903571Y-11165667D01*
X13903571Y-11213286D01*
X13894048Y-11251381D01*
X13884524Y-11270428D01*
X13875000Y-11279952D01*
X13855952Y-11289476D01*
X13836905Y-11289476D01*
X13817857Y-11279952D01*
X13808333Y-11270428D01*
X13798809Y-11251381D01*
X13789286Y-11213286D01*
X13789286Y-11165667D01*
X13798809Y-11127571D01*
X13808333Y-11108524D01*
X13817857Y-11099000D01*
X13836905Y-11089476D01*
X14027381Y-11089476D02*
X14046428Y-11089476D01*
X14065476Y-11099000D01*
X14075000Y-11108524D01*
X14084524Y-11127571D01*
X14094048Y-11165667D01*
X14094048Y-11213286D01*
X14084524Y-11251381D01*
X14075000Y-11270428D01*
X14065476Y-11279952D01*
X14046428Y-11289476D01*
X14027381Y-11289476D01*
X14008333Y-11279952D01*
X13998809Y-11270428D01*
X13989286Y-11251381D01*
X13979762Y-11213286D01*
X13979762Y-11165667D01*
X13989286Y-11127571D01*
X13998809Y-11108524D01*
X14008333Y-11099000D01*
X14027381Y-11089476D01*
X14179762Y-11289476D02*
X14179762Y-11156143D01*
X14179762Y-11175190D02*
X14189286Y-11165667D01*
X14208333Y-11156143D01*
X14236905Y-11156143D01*
X14255952Y-11165667D01*
X14265476Y-11184714D01*
X14265476Y-11289476D01*
X14265476Y-11184714D02*
X14275000Y-11165667D01*
X14294048Y-11156143D01*
X14322619Y-11156143D01*
X14341667Y-11165667D01*
X14351190Y-11184714D01*
X14351190Y-11289476D01*
X14446428Y-11289476D02*
X14446428Y-11156143D01*
X14446428Y-11175190D02*
X14455952Y-11165667D01*
X14475000Y-11156143D01*
X14503571Y-11156143D01*
X14522619Y-11165667D01*
X14532143Y-11184714D01*
X14532143Y-11289476D01*
X14532143Y-11184714D02*
X14541667Y-11165667D01*
X14560714Y-11156143D01*
X14589286Y-11156143D01*
X14608333Y-11165667D01*
X14617857Y-11184714D01*
X14617857Y-11289476D01*
X15008333Y-11079952D02*
X14836905Y-11337095D01*
X15265476Y-11089476D02*
X15284524Y-11089476D01*
X15303571Y-11099000D01*
X15313095Y-11108524D01*
X15322619Y-11127571D01*
X15332143Y-11165667D01*
X15332143Y-11213286D01*
X15322619Y-11251381D01*
X15313095Y-11270428D01*
X15303571Y-11279952D01*
X15284524Y-11289476D01*
X15265476Y-11289476D01*
X15246428Y-11279952D01*
X15236905Y-11270428D01*
X15227381Y-11251381D01*
X15217857Y-11213286D01*
X15217857Y-11165667D01*
X15227381Y-11127571D01*
X15236905Y-11108524D01*
X15246428Y-11099000D01*
X15265476Y-11089476D01*
X15417857Y-11270428D02*
X15427381Y-11279952D01*
X15417857Y-11289476D01*
X15408333Y-11279952D01*
X15417857Y-11270428D01*
X15417857Y-11289476D01*
X15551190Y-11089476D02*
X15570238Y-11089476D01*
X15589286Y-11099000D01*
X15598809Y-11108524D01*
X15608333Y-11127571D01*
X15617857Y-11165667D01*
X15617857Y-11213286D01*
X15608333Y-11251381D01*
X15598809Y-11270428D01*
X15589286Y-11279952D01*
X15570238Y-11289476D01*
X15551190Y-11289476D01*
X15532143Y-11279952D01*
X15522619Y-11270428D01*
X15513095Y-11251381D01*
X15503571Y-11213286D01*
X15503571Y-11165667D01*
X15513095Y-11127571D01*
X15522619Y-11108524D01*
X15532143Y-11099000D01*
X15551190Y-11089476D01*
X15684524Y-11089476D02*
X15808333Y-11089476D01*
X15741667Y-11165667D01*
X15770238Y-11165667D01*
X15789286Y-11175190D01*
X15798809Y-11184714D01*
X15808333Y-11203762D01*
X15808333Y-11251381D01*
X15798809Y-11270428D01*
X15789286Y-11279952D01*
X15770238Y-11289476D01*
X15713095Y-11289476D01*
X15694048Y-11279952D01*
X15684524Y-11270428D01*
X15903571Y-11289476D02*
X15941667Y-11289476D01*
X15960714Y-11279952D01*
X15970238Y-11270428D01*
X15989286Y-11241857D01*
X15998809Y-11203762D01*
X15998809Y-11127571D01*
X15989286Y-11108524D01*
X15979762Y-11099000D01*
X15960714Y-11089476D01*
X15922619Y-11089476D01*
X15903571Y-11099000D01*
X15894048Y-11108524D01*
X15884524Y-11127571D01*
X15884524Y-11175190D01*
X15894048Y-11194238D01*
X15903571Y-11203762D01*
X15922619Y-11213286D01*
X15960714Y-11213286D01*
X15979762Y-11203762D01*
X15989286Y-11194238D01*
X15998809Y-11175190D01*
X16170238Y-11156143D02*
X16170238Y-11289476D01*
X16122619Y-11079952D02*
X16075000Y-11222809D01*
X16198809Y-11222809D01*
X16265476Y-11089476D02*
X16265476Y-11127571D01*
X16341667Y-11089476D02*
X16341667Y-11127571D01*
X16636905Y-11365667D02*
X16627381Y-11356143D01*
X16608333Y-11327571D01*
X16598809Y-11308524D01*
X16589286Y-11279952D01*
X16579762Y-11232333D01*
X16579762Y-11194238D01*
X16589286Y-11146619D01*
X16598809Y-11118048D01*
X16608333Y-11099000D01*
X16627381Y-11070429D01*
X16636905Y-11060905D01*
X16798810Y-11089476D02*
X16760714Y-11089476D01*
X16741667Y-11099000D01*
X16732143Y-11108524D01*
X16713095Y-11137095D01*
X16703571Y-11175190D01*
X16703571Y-11251381D01*
X16713095Y-11270428D01*
X16722619Y-11279952D01*
X16741667Y-11289476D01*
X16779762Y-11289476D01*
X16798810Y-11279952D01*
X16808333Y-11270428D01*
X16817857Y-11251381D01*
X16817857Y-11203762D01*
X16808333Y-11184714D01*
X16798810Y-11175190D01*
X16779762Y-11165667D01*
X16741667Y-11165667D01*
X16722619Y-11175190D01*
X16713095Y-11184714D01*
X16703571Y-11203762D01*
X17055952Y-11289476D02*
X17055952Y-11089476D01*
X17141667Y-11289476D02*
X17141667Y-11184714D01*
X17132143Y-11165667D01*
X17113095Y-11156143D01*
X17084524Y-11156143D01*
X17065476Y-11165667D01*
X17055952Y-11175190D01*
X17265476Y-11289476D02*
X17246429Y-11279952D01*
X17236905Y-11270428D01*
X17227381Y-11251381D01*
X17227381Y-11194238D01*
X17236905Y-11175190D01*
X17246429Y-11165667D01*
X17265476Y-11156143D01*
X17294048Y-11156143D01*
X17313095Y-11165667D01*
X17322619Y-11175190D01*
X17332143Y-11194238D01*
X17332143Y-11251381D01*
X17322619Y-11270428D01*
X17313095Y-11279952D01*
X17294048Y-11289476D01*
X17265476Y-11289476D01*
X17446429Y-11289476D02*
X17427381Y-11279952D01*
X17417857Y-11260905D01*
X17417857Y-11089476D01*
X17598810Y-11279952D02*
X17579762Y-11289476D01*
X17541667Y-11289476D01*
X17522619Y-11279952D01*
X17513095Y-11260905D01*
X17513095Y-11184714D01*
X17522619Y-11165667D01*
X17541667Y-11156143D01*
X17579762Y-11156143D01*
X17598810Y-11165667D01*
X17608333Y-11184714D01*
X17608333Y-11203762D01*
X17513095Y-11222809D01*
X17684524Y-11279952D02*
X17703571Y-11289476D01*
X17741667Y-11289476D01*
X17760714Y-11279952D01*
X17770238Y-11260905D01*
X17770238Y-11251381D01*
X17760714Y-11232333D01*
X17741667Y-11222809D01*
X17713095Y-11222809D01*
X17694048Y-11213286D01*
X17684524Y-11194238D01*
X17684524Y-11184714D01*
X17694048Y-11165667D01*
X17713095Y-11156143D01*
X17741667Y-11156143D01*
X17760714Y-11165667D01*
X17836905Y-11365667D02*
X17846429Y-11356143D01*
X17865476Y-11327571D01*
X17875000Y-11308524D01*
X17884524Y-11279952D01*
X17894048Y-11232333D01*
X17894048Y-11194238D01*
X17884524Y-11146619D01*
X17875000Y-11118048D01*
X17865476Y-11099000D01*
X17846429Y-11070429D01*
X17836905Y-11060905D01*
X12965000Y-11363000D02*
X12965000Y-11563000D01*
X12865000Y-11463000D02*
X13065000Y-11463000D01*
X13313095Y-11372524D02*
X13322619Y-11363000D01*
X13341667Y-11353476D01*
X13389286Y-11353476D01*
X13408333Y-11363000D01*
X13417857Y-11372524D01*
X13427381Y-11391571D01*
X13427381Y-11410619D01*
X13417857Y-11439190D01*
X13303571Y-11553476D01*
X13427381Y-11553476D01*
X13513095Y-11534428D02*
X13522619Y-11543952D01*
X13513095Y-11553476D01*
X13503571Y-11543952D01*
X13513095Y-11534428D01*
X13513095Y-11553476D01*
X13598809Y-11372524D02*
X13608333Y-11363000D01*
X13627381Y-11353476D01*
X13675000Y-11353476D01*
X13694048Y-11363000D01*
X13703571Y-11372524D01*
X13713095Y-11391571D01*
X13713095Y-11410619D01*
X13703571Y-11439190D01*
X13589286Y-11553476D01*
X13713095Y-11553476D01*
X13836905Y-11353476D02*
X13855952Y-11353476D01*
X13875000Y-11363000D01*
X13884524Y-11372524D01*
X13894048Y-11391571D01*
X13903571Y-11429667D01*
X13903571Y-11477286D01*
X13894048Y-11515381D01*
X13884524Y-11534428D01*
X13875000Y-11543952D01*
X13855952Y-11553476D01*
X13836905Y-11553476D01*
X13817857Y-11543952D01*
X13808333Y-11534428D01*
X13798809Y-11515381D01*
X13789286Y-11477286D01*
X13789286Y-11429667D01*
X13798809Y-11391571D01*
X13808333Y-11372524D01*
X13817857Y-11363000D01*
X13836905Y-11353476D01*
X14027381Y-11353476D02*
X14046428Y-11353476D01*
X14065476Y-11363000D01*
X14075000Y-11372524D01*
X14084524Y-11391571D01*
X14094048Y-11429667D01*
X14094048Y-11477286D01*
X14084524Y-11515381D01*
X14075000Y-11534428D01*
X14065476Y-11543952D01*
X14046428Y-11553476D01*
X14027381Y-11553476D01*
X14008333Y-11543952D01*
X13998809Y-11534428D01*
X13989286Y-11515381D01*
X13979762Y-11477286D01*
X13979762Y-11429667D01*
X13989286Y-11391571D01*
X13998809Y-11372524D01*
X14008333Y-11363000D01*
X14027381Y-11353476D01*
X14179762Y-11553476D02*
X14179762Y-11420143D01*
X14179762Y-11439190D02*
X14189286Y-11429667D01*
X14208333Y-11420143D01*
X14236905Y-11420143D01*
X14255952Y-11429667D01*
X14265476Y-11448714D01*
X14265476Y-11553476D01*
X14265476Y-11448714D02*
X14275000Y-11429667D01*
X14294048Y-11420143D01*
X14322619Y-11420143D01*
X14341667Y-11429667D01*
X14351190Y-11448714D01*
X14351190Y-11553476D01*
X14446428Y-11553476D02*
X14446428Y-11420143D01*
X14446428Y-11439190D02*
X14455952Y-11429667D01*
X14475000Y-11420143D01*
X14503571Y-11420143D01*
X14522619Y-11429667D01*
X14532143Y-11448714D01*
X14532143Y-11553476D01*
X14532143Y-11448714D02*
X14541667Y-11429667D01*
X14560714Y-11420143D01*
X14589286Y-11420143D01*
X14608333Y-11429667D01*
X14617857Y-11448714D01*
X14617857Y-11553476D01*
X15008333Y-11343952D02*
X14836905Y-11601095D01*
X15265476Y-11353476D02*
X15284524Y-11353476D01*
X15303571Y-11363000D01*
X15313095Y-11372524D01*
X15322619Y-11391571D01*
X15332143Y-11429667D01*
X15332143Y-11477286D01*
X15322619Y-11515381D01*
X15313095Y-11534428D01*
X15303571Y-11543952D01*
X15284524Y-11553476D01*
X15265476Y-11553476D01*
X15246428Y-11543952D01*
X15236905Y-11534428D01*
X15227381Y-11515381D01*
X15217857Y-11477286D01*
X15217857Y-11429667D01*
X15227381Y-11391571D01*
X15236905Y-11372524D01*
X15246428Y-11363000D01*
X15265476Y-11353476D01*
X15417857Y-11534428D02*
X15427381Y-11543952D01*
X15417857Y-11553476D01*
X15408333Y-11543952D01*
X15417857Y-11534428D01*
X15417857Y-11553476D01*
X15551190Y-11353476D02*
X15570238Y-11353476D01*
X15589286Y-11363000D01*
X15598809Y-11372524D01*
X15608333Y-11391571D01*
X15617857Y-11429667D01*
X15617857Y-11477286D01*
X15608333Y-11515381D01*
X15598809Y-11534428D01*
X15589286Y-11543952D01*
X15570238Y-11553476D01*
X15551190Y-11553476D01*
X15532143Y-11543952D01*
X15522619Y-11534428D01*
X15513095Y-11515381D01*
X15503571Y-11477286D01*
X15503571Y-11429667D01*
X15513095Y-11391571D01*
X15522619Y-11372524D01*
X15532143Y-11363000D01*
X15551190Y-11353476D01*
X15732143Y-11439190D02*
X15713095Y-11429667D01*
X15703571Y-11420143D01*
X15694048Y-11401095D01*
X15694048Y-11391571D01*
X15703571Y-11372524D01*
X15713095Y-11363000D01*
X15732143Y-11353476D01*
X15770238Y-11353476D01*
X15789286Y-11363000D01*
X15798809Y-11372524D01*
X15808333Y-11391571D01*
X15808333Y-11401095D01*
X15798809Y-11420143D01*
X15789286Y-11429667D01*
X15770238Y-11439190D01*
X15732143Y-11439190D01*
X15713095Y-11448714D01*
X15703571Y-11458238D01*
X15694048Y-11477286D01*
X15694048Y-11515381D01*
X15703571Y-11534428D01*
X15713095Y-11543952D01*
X15732143Y-11553476D01*
X15770238Y-11553476D01*
X15789286Y-11543952D01*
X15798809Y-11534428D01*
X15808333Y-11515381D01*
X15808333Y-11477286D01*
X15798809Y-11458238D01*
X15789286Y-11448714D01*
X15770238Y-11439190D01*
X15979762Y-11353476D02*
X15941667Y-11353476D01*
X15922619Y-11363000D01*
X15913095Y-11372524D01*
X15894048Y-11401095D01*
X15884524Y-11439190D01*
X15884524Y-11515381D01*
X15894048Y-11534428D01*
X15903571Y-11543952D01*
X15922619Y-11553476D01*
X15960714Y-11553476D01*
X15979762Y-11543952D01*
X15989286Y-11534428D01*
X15998809Y-11515381D01*
X15998809Y-11467762D01*
X15989286Y-11448714D01*
X15979762Y-11439190D01*
X15960714Y-11429667D01*
X15922619Y-11429667D01*
X15903571Y-11439190D01*
X15894048Y-11448714D01*
X15884524Y-11467762D01*
X16170238Y-11353476D02*
X16132143Y-11353476D01*
X16113095Y-11363000D01*
X16103571Y-11372524D01*
X16084524Y-11401095D01*
X16075000Y-11439190D01*
X16075000Y-11515381D01*
X16084524Y-11534428D01*
X16094048Y-11543952D01*
X16113095Y-11553476D01*
X16151190Y-11553476D01*
X16170238Y-11543952D01*
X16179762Y-11534428D01*
X16189286Y-11515381D01*
X16189286Y-11467762D01*
X16179762Y-11448714D01*
X16170238Y-11439190D01*
X16151190Y-11429667D01*
X16113095Y-11429667D01*
X16094048Y-11439190D01*
X16084524Y-11448714D01*
X16075000Y-11467762D01*
X16265476Y-11353476D02*
X16265476Y-11391571D01*
X16341667Y-11353476D02*
X16341667Y-11391571D01*
X16636905Y-11629667D02*
X16627381Y-11620143D01*
X16608333Y-11591571D01*
X16598809Y-11572524D01*
X16589286Y-11543952D01*
X16579762Y-11496333D01*
X16579762Y-11458238D01*
X16589286Y-11410619D01*
X16598809Y-11382048D01*
X16608333Y-11363000D01*
X16627381Y-11334428D01*
X16636905Y-11324905D01*
X16703571Y-11372524D02*
X16713095Y-11363000D01*
X16732143Y-11353476D01*
X16779762Y-11353476D01*
X16798810Y-11363000D01*
X16808333Y-11372524D01*
X16817857Y-11391571D01*
X16817857Y-11410619D01*
X16808333Y-11439190D01*
X16694048Y-11553476D01*
X16817857Y-11553476D01*
X17055952Y-11553476D02*
X17055952Y-11353476D01*
X17141667Y-11553476D02*
X17141667Y-11448714D01*
X17132143Y-11429667D01*
X17113095Y-11420143D01*
X17084524Y-11420143D01*
X17065476Y-11429667D01*
X17055952Y-11439190D01*
X17265476Y-11553476D02*
X17246429Y-11543952D01*
X17236905Y-11534428D01*
X17227381Y-11515381D01*
X17227381Y-11458238D01*
X17236905Y-11439190D01*
X17246429Y-11429667D01*
X17265476Y-11420143D01*
X17294048Y-11420143D01*
X17313095Y-11429667D01*
X17322619Y-11439190D01*
X17332143Y-11458238D01*
X17332143Y-11515381D01*
X17322619Y-11534428D01*
X17313095Y-11543952D01*
X17294048Y-11553476D01*
X17265476Y-11553476D01*
X17446429Y-11553476D02*
X17427381Y-11543952D01*
X17417857Y-11524905D01*
X17417857Y-11353476D01*
X17598810Y-11543952D02*
X17579762Y-11553476D01*
X17541667Y-11553476D01*
X17522619Y-11543952D01*
X17513095Y-11524905D01*
X17513095Y-11448714D01*
X17522619Y-11429667D01*
X17541667Y-11420143D01*
X17579762Y-11420143D01*
X17598810Y-11429667D01*
X17608333Y-11448714D01*
X17608333Y-11467762D01*
X17513095Y-11486809D01*
X17684524Y-11543952D02*
X17703571Y-11553476D01*
X17741667Y-11553476D01*
X17760714Y-11543952D01*
X17770238Y-11524905D01*
X17770238Y-11515381D01*
X17760714Y-11496333D01*
X17741667Y-11486809D01*
X17713095Y-11486809D01*
X17694048Y-11477286D01*
X17684524Y-11458238D01*
X17684524Y-11448714D01*
X17694048Y-11429667D01*
X17713095Y-11420143D01*
X17741667Y-11420143D01*
X17760714Y-11429667D01*
X17836905Y-11629667D02*
X17846429Y-11620143D01*
X17865476Y-11591571D01*
X17875000Y-11572524D01*
X17884524Y-11543952D01*
X17894048Y-11496333D01*
X17894048Y-11458238D01*
X17884524Y-11410619D01*
X17875000Y-11382048D01*
X17865476Y-11363000D01*
X17846429Y-11334428D01*
X17836905Y-11324905D01*
M02*
